<?xml version="1.0" encoding="utf-8"?>
<!-- Generator: Adobe Illustrator 22.1.0, SVG Export Plug-In . SVG Version: 6.00 Build 0)  -->
<svg version="1.1" id="Layer_1" xmlns="http://www.w3.org/2000/svg" xmlns:xlink="http://www.w3.org/1999/xlink" x="0px" y="0px"
	 viewBox="0 0 96 96" style="enable-background:new 0 0 96 96;" xml:space="preserve">
<style type="text/css">
	.st0{fill:#FFFFFF;}
	.st1{fill:#E3EFF8;}
	.st2{fill:none;}
	.st3{fill:#0087DC;}
	.st4{fill:#444444;}
</style>
<g>
	<circle class="st0" cx="48" cy="48" r="48"/>
</g>
<g>
	<path class="st1" d="M48,96C21.5,96,0,74.5,0,48C0,21.5,21.5,0,48,0c26.5,0,48,21.5,48,48C96,74.5,74.5,96,48,96z M48,8
		C25.9,8,8,25.9,8,48c0,22.1,17.9,40,40,40c22.1,0,40-17.9,40-40C88,25.9,70.1,8,48,8z"/>
</g>
<g>
	<circle class="st2" cx="48" cy="48" r="48"/>
</g>
<g>
	<path class="st3" d="M48,96C21.5,96,0,74.5,0,48C0,21.5,21.5,0,48,0c26.5,0,48,21.5,48,48C96,74.5,74.5,96,48,96z M48,8
		C25.9,8,8,25.9,8,48c0,22.1,17.9,40,40,40c22.1,0,40-17.9,40-40C88,25.9,70.1,8,48,8z"/>
</g>
<path id="Path_11335" class="st4" d="M34.2,30c3-0.1,5.9,1.2,7.8,3.6c2.2,2.8,3.4,7.5,3.4,14c0,6.5-1.1,11.2-3.4,14
	c-1.9,2.4-4.8,3.7-7.8,3.5c-3.2,0.1-6.2-1.3-8.1-3.9c-2-2.6-3.1-7.2-3.1-13.7c0-6.5,1.1-11.1,3.4-14C28.3,31.2,31.1,29.9,34.2,30z
	 M34.2,35.5c-0.8,0-1.5,0.3-2.1,0.8c-0.8,0.7-1.3,1.7-1.5,2.7c-0.6,2.8-0.8,5.7-0.7,8.6c-0.1,2.8,0.1,5.6,0.6,8.3
	c0.2,1.1,0.7,2.2,1.5,3c0.6,0.5,1.3,0.8,2.1,0.8c0.8,0,1.5-0.3,2.1-0.8c0.8-0.7,1.3-1.7,1.4-2.7c0.6-2.8,0.8-5.7,0.7-8.6
	c0.1-2.8-0.1-5.6-0.6-8.3c-0.2-1.1-0.7-2.2-1.5-3C35.7,35.7,34.9,35.5,34.2,35.5z M62.6,64.5v-6.9H48.6v-5.8L63.5,30H69v21.8h4.3
	v5.8H69v6.9L62.6,64.5z M62.6,51.8V40.1l-7.9,11.7L62.6,51.8z"/>
</svg>
