<svg xmlns="http://www.w3.org/2000/svg" width="32" height="32" viewBox="0 0 32 32">
  <g id="Group_2384" data-name="Group 2384" transform="translate(-462 -1135.309)">
    <rect id="Rectangle_1967" data-name="Rectangle 1967" width="32" height="32" rx="4" transform="translate(462 1135.309)" fill="#0087dc"/>
    <path id="Path_10069" data-name="Path 10069" d="M-156.06,22.3a.413.413,0,0,1,.414-.413h3.1a.413.413,0,0,1,.414.413.413.413,0,0,1-.414.414h-3.1a.413.413,0,0,1-.414-.414m0-2.976a.413.413,0,0,1,.414-.414h3.1a.413.413,0,0,1,.414.414.413.413,0,0,1-.414.413h-3.1a.413.413,0,0,1-.414-.413m-4.366.422h-5.86a.413.413,0,0,1-.414-.413.413.413,0,0,1,.414-.414h5.86a.413.413,0,0,1,.413.414.413.413,0,0,1-.413.413M-166.7,16.36a.413.413,0,0,1,.414-.414h5.86a.413.413,0,0,1,.413.414.413.413,0,0,1-.413.413h-5.86a.413.413,0,0,1-.414-.413m0-2.976a.413.413,0,0,1,.414-.414h5.86a.413.413,0,0,1,.413.414.413.413,0,0,1-.413.413h-5.86a.413.413,0,0,1-.414-.413m0-2.977a.413.413,0,0,1,.414-.413h5.86a.413.413,0,0,1,.413.413.413.413,0,0,1-.413.414h-5.86a.413.413,0,0,1-.414-.414m1.987,12.744H-162v4.717h-2.714Zm-3.566-15.7h9.846V27.978h-2.739V23.04a.718.718,0,0,0-.716-.717h-2.935a.718.718,0,0,0-.717.717v4.938h-2.739Zm17.113,20.528h-5.86V17.064h5.86Zm2.907,0h-1.5V16.361a.7.7,0,0,0-.7-.7h-6.564V6.746a.7.7,0,0,0-.7-.7h-11.252a.7.7,0,0,0-.7.7V27.978h-1.549a.655.655,0,0,0-.654.651v.166a.656.656,0,0,0,.654.654h22.975a.656.656,0,0,0,.653-.654v-.166a.655.655,0,0,0-.653-.651" transform="translate(637.747 1133.563)" fill="#fff"/>
  </g>
</svg>
