<svg xmlns="http://www.w3.org/2000/svg" width="35.814" height="32" viewBox="0 0 35.814 32">
  <g id="Group_2329" data-name="Group 2329" transform="translate(54.967 -6.7)">
    <path id="Path_10062" data-name="Path 10062" d="M-50.02,34.316h18.2V36.79H-50.871V34.316Zm.912-14.691h3.044V32.563h-3.044Zm.439-3.088H-46.5l.777,2.013h-3.719Zm1.62-1.082V14.23c0-.751.4-1.274.754-1.274h5.94c.357,0,.754.523.754,1.274v1.232h-.914a.538.538,0,0,0-.5.345L-42.3,19.146l0,.013a.9.9,0,0,0-.1.4V32.491h-1.828V19.563a.883.883,0,0,0-.105-.4v-.013l-1.289-3.339a.538.538,0,0,0-.5-.345h-.915l0-.007m6.462,4.17h3.044V32.394h-3.044Zm2.605-3.088.777,2.013h-3.719l.777-2.013Zm7.8,20.254h.187V16.74h6.74V36.79h-6.965m10.214,0h-1.424V15.827a.911.911,0,0,0-.912-.912H-30.9a.911.911,0,0,0-.912.912V32.491h-3.9V19.563a.889.889,0,0,0-.1-.4l0-.015-1.289-3.339a.538.538,0,0,0-.5-.345h-.916l0-.007V14.23a2.114,2.114,0,0,0-1.828-2.348h-5.94a2.115,2.115,0,0,0-1.828,2.348v1.225l0,.007h-.916a.538.538,0,0,0-.5.345l-1.288,3.339,0,.015a.9.9,0,0,0-.1.4V32.491h-.85a.912.912,0,0,0-.913.913V36.79h-1.423a.85.85,0,0,0-.848.844v.251a.851.851,0,0,0,.848.849H-20a.852.852,0,0,0,.849-.849v-.251A.851.851,0,0,0-20,36.79" transform="translate(0 -0.035)" fill="#0087dc"/>
    <path id="Path_10063" data-name="Path 10063" d="M-25.964,16.186a.719.719,0,0,1-.72-.719V10.332a2.2,2.2,0,0,0-2.192-2.193H-40.13a2.2,2.2,0,0,0-2.192,2.193v1.815a.719.719,0,0,1-.72.719.72.72,0,0,1-.72-.719V10.332A3.636,3.636,0,0,1-40.13,6.7h11.254a3.636,3.636,0,0,1,3.632,3.632v5.134A.72.72,0,0,1-25.964,16.186Z" transform="translate(-0.075)" fill="#0087dc"/>
  </g>
</svg>
